<svg width="35" height="35" viewBox="0 0 35 35" fill="none" xmlns="http://www.w3.org/2000/svg">
<rect width="35" height="35" fill="#E5E5E5"/>
<g clip-path="url(#clip0_0_1)">
<rect width="1440" height="4210" transform="translate(-1358 -64)" fill="white"/>
<rect width="35" height="35" rx="17.5" fill="#C87B5E"/>
<path d="M20.6167 17.1787C20.6167 18.4567 20.3522 19.4342 19.8232 20.1113C19.2943 20.7884 18.5199 21.127 17.5 21.127C16.4928 21.127 15.7227 20.7948 15.1895 20.1304C14.6562 19.466 14.3833 18.5138 14.3706 17.2739V15.5728C14.3706 14.2821 14.6372 13.3024 15.1704 12.6338C15.7078 11.9652 16.4801 11.6309 17.4873 11.6309C18.4945 11.6309 19.2646 11.9631 19.7979 12.6274C20.3311 13.2876 20.604 14.2376 20.6167 15.4775V17.1787ZM18.7822 15.3125C18.7822 14.5465 18.6764 13.9901 18.4648 13.6431C18.2575 13.2918 17.9316 13.1162 17.4873 13.1162C17.0557 13.1162 16.7362 13.2834 16.5288 13.6177C16.3257 13.9478 16.2178 14.4661 16.2051 15.1729V17.4199C16.2051 18.1732 16.3066 18.7339 16.5098 19.1021C16.7171 19.466 17.0472 19.6479 17.5 19.6479C17.9486 19.6479 18.2723 19.4723 18.4712 19.1211C18.6701 18.7699 18.7738 18.2324 18.7822 17.5088V15.3125Z" fill="#F5F1E9"/>
</g>
<defs>
<clipPath id="clip0_0_1">
<rect width="1440" height="4210" fill="white" transform="translate(-1358 -64)"/>
</clipPath>
</defs>
</svg>
